<?xml version="1.0" encoding="UTF-8" standalone="no"?>
<svg
   xmlns:dc="http://purl.org/dc/elements/1.1/"
   xmlns:cc="http://creativecommons.org/ns#"
   xmlns:rdf="http://www.w3.org/1999/02/22-rdf-syntax-ns#"
   xmlns:svg="http://www.w3.org/2000/svg"
   xmlns="http://www.w3.org/2000/svg"
   xmlns:sodipodi="http://sodipodi.sourceforge.net/DTD/sodipodi-0.dtd"
   xmlns:inkscape="http://www.inkscape.org/namespaces/inkscape"
   version="1.1"
   id="svg2002"
   sodipodi:docname="vector_tiles_items.svg"
   width="200"
   height="190"
   inkscape:version="0.92.4 (5da689c313, 2019-01-14)"
   inkscape:export-filename="D:\Programming\Websites\Games\Be-Communion-Game\assets\objects\minecart.png"
   inkscape:export-xdpi="144"
   inkscape:export-ydpi="144">
  <metadata
     id="metadata2006">
    <rdf:RDF>
      <cc:Work
         rdf:about="">
        <dc:format>image/svg+xml</dc:format>
        <dc:type
           rdf:resource="http://purl.org/dc/dcmitype/StillImage" />
        <dc:title></dc:title>
      </cc:Work>
    </rdf:RDF>
  </metadata>
  <sodipodi:namedview
     pagecolor="#ffffff"
     bordercolor="#666666"
     borderopacity="1"
     objecttolerance="10"
     gridtolerance="10"
     guidetolerance="10"
     inkscape:pageopacity="0"
     inkscape:pageshadow="2"
     inkscape:window-width="640"
     inkscape:window-height="480"
     id="namedview2004"
     showgrid="false"
     units="px"
     inkscape:zoom="6.16"
     inkscape:cx="103.975"
     inkscape:cy="56.25254"
     inkscape:current-layer="svg2002"
     inkscape:pagecheckerboard="true" />
  <defs
     id="defs2" />
  <g
     id="g7587">
    <path
       d="M -7e-6,10 V 0 H 199.99999 V 10 H -7e-6"
       id="path1968"
       inkscape:connector-curvature="0"
       style="fill:#a0c2c4;stroke:none;stroke-width:4.82523441" />
    <path
       d="m 158,125 v 16 H 40 v -16 h 118"
       id="path1970"
       inkscape:connector-curvature="0"
       style="fill:#6b8183;stroke:none;stroke-width:4.65544081" />
    <path
       sodipodi:nodetypes="ccccc"
       d="m 194,42 -1,10 H 7 L 6,42 h 188"
       id="path1972"
       inkscape:connector-curvature="0"
       style="fill:#7d9698;stroke:none;stroke-width:4.82960272" />
    <path
       sodipodi:nodetypes="ccccccc"
       d="m 193,52 -9,73 H 159.11809 41.115578 16 L 7,52 h 186"
       id="path1974"
       inkscape:connector-curvature="0"
       style="fill:#89a4a6;stroke:none;stroke-width:4.6689496" />
    <path
       d="M -7e-6,10 H 199.99999 V 42 H 193.71361 6.0535436 -7e-6 V 10"
       id="path1976"
       inkscape:connector-curvature="0"
       style="fill:#95b4b6;stroke:none;stroke-width:4.66404915" />
    <path
       id="path7554"
       d="m 58.672868,120.15135 q -12.33993,0 -20.954598,8.61467 -8.614668,8.84749 -8.614668,20.9546 0,12.1071 8.614668,20.72176 8.614668,8.8475 20.954598,8.8475 12.107101,0 20.72177,-8.8475 8.847497,-8.61466 8.847497,-20.72176 0,-12.10711 -8.847497,-20.9546 -8.614669,-8.61467 -20.72177,-8.61467"
       style="fill:#a0c2c4;stroke:none;stroke-width:4.65657759"
       inkscape:connector-curvature="0" />
    <path
       inkscape:connector-curvature="0"
       id="path7552"
       d="m 57,110 q 16.568047,0 28.165681,11.59763 Q 97,133.43195 97,150 l -0.236685,4.73372 Q 95.343195,168.22485 85.165681,178.16568 73.568047,190 57,190 40.431953,190 28.597634,178.16568 18.656805,168.22485 17.236686,154.73372 L 17,150 Q 17,133.43195 28.597634,121.59763 40.431953,110 57,110"
       style="fill:#a0c2c4;stroke:none;stroke-width:4.73372841" />
    <path
       inkscape:connector-curvature="0"
       id="path7550"
       d="m 103,150.00001 q 0,-16.56804 11.59763,-28.40236 11.83433,-11.59764 28.40237,-11.59764 16.56804,0 28.16567,11.59764 Q 183,133.43197 183,150.00001 l -0.23669,4.73373 q -1.42011,13.49112 -11.59764,23.43195 -11.59763,11.83432 -28.16567,11.83432 -16.56804,0 -28.40237,-11.83432 -9.94083,-9.94083 -11.36094,-23.43195 L 103,150.00001"
       style="fill:#a0c2c4;stroke:none;stroke-width:4.73372793" />
    <path
       id="path1978"
       d="m 111.75785,150.65193 q 0,12.1071 8.61467,20.9546 8.61467,8.61467 20.9546,8.61467 12.1071,0 20.72177,-8.61467 8.84749,-8.8475 8.84749,-20.9546 0,-12.1071 -8.84749,-20.72177 -8.61467,-8.8475 -20.72177,-8.8475 -12.33993,0 -20.9546,8.8475 -8.61467,8.61467 -8.61467,20.72177"
       style="fill:#a0c2c4;stroke:none;stroke-width:4.65657759"
       inkscape:connector-curvature="0" />
    <path
       inkscape:connector-curvature="0"
       id="path7562"
       d="m 113,150 q 0,-12.28346 8.74016,-21.02362 Q 130.48032,120 143,120 q 12.28346,0 21.02362,8.97638 8.97637,8.74016 8.97637,21.02362 0,12.28346 -8.97637,21.25984 Q 155.28346,180 143,180 130.48032,180 121.74016,171.25984 113,162.28346 113,150"
       style="fill:#89a4a6;stroke:none;stroke-width:4.7244091" />
    <path
       inkscape:connector-curvature="0"
       id="path7560"
       d="m 56.999999,120 q 12.283465,0 21.023623,8.74016 Q 87,137.71653 87,150.00001 87,162.28347 78.023622,171.02362 69.283464,180 56.999999,180 44.480315,180 35.740157,171.02362 27,162.28347 27,150.00001 27,137.71653 35.740157,128.74016 44.480315,120 56.999999,120"
       style="fill:#89a4a6;stroke:none;stroke-width:4.72440958" />
    <path
       id="path7558"
       d="m 153.20139,150.65193 q 0,-4.65658 -3.49243,-8.38184 -3.49244,-3.49243 -8.38184,-3.49243 -4.88941,0 -8.38184,3.49243 -3.49244,3.72526 -3.49244,8.38184 0,4.88941 3.49244,8.38184 3.49243,3.49243 8.38184,3.49243 4.8894,0 8.38184,-3.49243 3.49243,-3.49243 3.49243,-8.38184"
       style="fill:#89a4a6;stroke:none;stroke-width:4.65657759"
       inkscape:connector-curvature="0" />
    <path
       id="path1980"
       d="m 58.672868,161.59489 q 4.889407,0 8.38184,-3.49244 3.259604,-3.49243 3.259604,-8.38183 0,-4.65658 -3.259604,-8.38184 -3.492433,-3.49244 -8.38184,-3.49244 -4.889406,0 -8.381839,3.49244 -3.492433,3.72526 -3.492433,8.38184 0,4.8894 3.492433,8.38183 3.492433,3.49244 8.381839,3.49244"
       style="fill:#89a4a6;stroke:none;stroke-width:4.65657759"
       inkscape:connector-curvature="0" />
    <path
       inkscape:connector-curvature="0"
       id="path7566"
       d="m 57.118811,162 q -4.990098,0 -8.554459,-3.52946 Q 45,154.94119 45,150 45,145.2941 48.564352,141.52946 52.128713,138 57.118811,138 q 4.990099,0 8.55446,3.52946 Q 69,145.2941 69,150 q 0,4.94119 -3.326729,8.47054 Q 62.10891,162 57.118811,162"
       style="fill:#6b8183;stroke:none;stroke-width:4.72911978" />
    <path
       inkscape:connector-curvature="0"
       id="path1982"
       d="m 155,150 q 0,4.94118 -3.52941,8.47059 Q 147.94117,162 143.00001,162 q -4.94118,0 -8.47059,-3.52941 Q 131,154.94118 131,150 q 0,-4.70589 3.52942,-8.47059 Q 138.05883,138 143.00001,138 q 4.94116,0 8.47058,3.52941 Q 155,145.29411 155,150"
       style="fill:#6b8183;stroke:none;stroke-width:4.70588255" />
    <path
       d="m 18,67 q 0,-2 1.5,-3.500001 1.5,-1.5 3.5,-1.5 2,0 3.5,1.5 L 28,67 26.5,70.5 23,72 19.5,70.5 Q 18,69 18,67"
       id="path1984"
       inkscape:connector-curvature="0"
       style="fill:#95b4b6;stroke:none;stroke-width:5.00000048" />
    <path
       d="M 28.999999,84 32.5,85.5 34,89.000001 32.5,92.5 28.999999,94 q -2,0 -3.499999,-1.5 -1.5,-1.499999 -1.5,-3.499999 0,-2 1.5,-3.500001 1.499999,-1.5 3.499999,-1.5"
       id="path1986"
       inkscape:connector-curvature="0"
       style="fill:#95b4b6;stroke:none;stroke-width:5" />
    <path
       d="m 180.5,63.5 1.49999,3.500001 L 180.5,70.5 176.99999,72 q -2,0 -3.49999,-1.5 -1.5,-1.499999 -1.5,-3.499999 0,-2 1.5,-3.500001 Q 174.99999,62 176.99999,62 179,62 180.5,63.5"
       id="path1988"
       inkscape:connector-curvature="0"
       style="fill:#95b4b6;stroke:none;stroke-width:5" />
    <path
       d="M 169.5,85.5 Q 171,84 173,84 q 2,0 3.5,1.5 l 1.49999,3.500001 L 176.5,92.5 Q 175,94 173,94 l -3.5,-1.5 -1.5,-3.499999 q 0,-2 1.5,-3.500001"
       id="path1990"
       inkscape:connector-curvature="0"
       style="fill:#95b4b6;stroke:none;stroke-width:5" />
  </g>
</svg>
