<?xml version="1.0" encoding="UTF-8" standalone="no"?>
<!-- Created with Inkscape (http://www.inkscape.org/) -->

<svg
   xmlns:dc="http://purl.org/dc/elements/1.1/"
   xmlns:cc="http://creativecommons.org/ns#"
   xmlns:rdf="http://www.w3.org/1999/02/22-rdf-syntax-ns#"
   xmlns:svg="http://www.w3.org/2000/svg"
   xmlns="http://www.w3.org/2000/svg"
   xmlns:sodipodi="http://sodipodi.sourceforge.net/DTD/sodipodi-0.dtd"
   xmlns:inkscape="http://www.inkscape.org/namespaces/inkscape"
   width="100"
   height="102"
   viewBox="0 0 26.458333 26.987501"
   version="1.1"
   id="svg20568"
   inkscape:version="0.92.4 (5da689c313, 2019-01-14)"
   sodipodi:docname="fullscreen-exit-hovered.svg"
   inkscape:export-filename="../../bitmaps/buttons/fullscreen-exit-hovered.png"
   inkscape:export-xdpi="96"
   inkscape:export-ydpi="96">
  <defs
     id="defs20562">
    <clipPath
       clipPathUnits="userSpaceOnUse"
       id="clipPath5690">
      <path
         d="M 0,720 H 1280 V 0 H 0 Z"
         id="path5688"
         inkscape:connector-curvature="0" />
    </clipPath>
    <clipPath
       clipPathUnits="userSpaceOnUse"
       id="clipPath5730">
      <path
         d="m 478.291,617.065 h 56.311 v -57.36 h -56.311 z"
         id="path5728"
         inkscape:connector-curvature="0" />
    </clipPath>
    <radialGradient
       fx="0"
       fy="0"
       cx="0"
       cy="0"
       r="1"
       gradientUnits="userSpaceOnUse"
       gradientTransform="matrix(24.59741,0,0,-23.416735,505.69971,657.14404)"
       spreadMethod="pad"
       id="radialGradient5680">
      <stop
         style="stop-opacity:1;stop-color:#e65124"
         offset="0"
         id="stop5674" />
      <stop
         style="stop-opacity:1;stop-color:#e65124"
         offset="0.263441"
         id="stop5676" />
      <stop
         style="stop-opacity:1;stop-color:#a91e22"
         offset="1"
         id="stop5678" />
    </radialGradient>
    <clipPath
       clipPathUnits="userSpaceOnUse"
       id="clipPath5588">
      <path
         d="M 0,720 H 1280 V 0 H 0 Z"
         id="path5586"
         inkscape:connector-curvature="0" />
    </clipPath>
    <clipPath
       clipPathUnits="userSpaceOnUse"
       id="clipPath5644">
      <path
         d="m 478.291,683.395 h 56.311 v -57.36 h -56.311 z"
         id="path5642"
         inkscape:connector-curvature="0" />
    </clipPath>
    <clipPath
       clipPathUnits="userSpaceOnUse"
       id="clipPath13404">
      <path
         d="M 0,720 H 1280 V 0 H 0 Z"
         id="path13402"
         inkscape:connector-curvature="0" />
    </clipPath>
    <clipPath
       clipPathUnits="userSpaceOnUse"
       id="clipPath13492">
      <path
         d="M 996.586,85.0645 H 1052.9 V 27.7031 h -56.314 z"
         id="path13490"
         inkscape:connector-curvature="0" />
    </clipPath>
    <radialGradient
       fx="0"
       fy="0"
       cx="0"
       cy="0"
       r="1"
       gradientUnits="userSpaceOnUse"
       gradientTransform="matrix(24.597656,0,0,-23.416969,1023.9951,657.14404)"
       spreadMethod="pad"
       id="radialGradient13292">
      <stop
         style="stop-opacity:1;stop-color:#e65124"
         offset="0"
         id="stop13286" />
      <stop
         style="stop-opacity:1;stop-color:#e65124"
         offset="0.263441"
         id="stop13288" />
      <stop
         style="stop-opacity:1;stop-color:#e76924"
         offset="1"
         id="stop13290" />
    </radialGradient>
  </defs>
  <sodipodi:namedview
     id="base"
     pagecolor="#ffffff"
     bordercolor="#666666"
     borderopacity="1.0"
     inkscape:pageopacity="0.0"
     inkscape:pageshadow="2"
     inkscape:zoom="4.0000001"
     inkscape:cx="-2.9099612"
     inkscape:cy="66.059941"
     inkscape:document-units="px"
     inkscape:current-layer="g13400"
     showgrid="false"
     units="px"
     inkscape:pagecheckerboard="true" />
  <metadata
     id="metadata20565">
    <rdf:RDF>
      <cc:Work
         rdf:about="">
        <dc:format>image/svg+xml</dc:format>
        <dc:type
           rdf:resource="http://purl.org/dc/dcmitype/StillImage" />
        <dc:title></dc:title>
      </cc:Work>
    </rdf:RDF>
  </metadata>
  <g
     inkscape:groupmode="layer"
     id="layer3"
     inkscape:label="Base"
     style="display:inline"
     transform="translate(0,-27.252084)">
    <g
       style="display:inline"
       transform="matrix(0.46986334,0,0,-0.4704942,-224.73135,348.78544)"
       id="g5582">
      <g
         id="g5638">
        <g
           id="g5640" />
        <g
           id="g5652">
          <g
             clip-path="url(#clipPath5644)"
             id="g5650"
             style="opacity:0.10000598">
            <g
               transform="translate(534.6016,640.0249)"
               id="g5648">
              <path
                 d="m 0,0 c 0,-7.729 -6.149,-13.99 -13.736,-13.99 h -28.839 c -7.586,0 -13.736,6.261 -13.736,13.99 v 29.379 c 0,7.728 6.15,13.991 13.736,13.991 h 28.839 C -6.149,43.37 0,37.107 0,29.379 Z"
                 style="fill:#231f20;fill-opacity:1;fill-rule:nonzero;stroke:none"
                 id="path5646"
                 inkscape:connector-curvature="0" />
            </g>
          </g>
        </g>
      </g>
      <g
         id="g5654"
         transform="translate(533.1309,641.6636)">
        <path
           d="m 0,0 c 0,-7.437 -5.989,-13.463 -13.377,-13.463 h -28.086 c -7.388,0 -13.377,6.026 -13.377,13.463 v 28.268 c 0,7.437 5.989,13.463 13.377,13.463 h 28.086 C -5.989,41.731 0,35.705 0,28.268 Z"
           style="fill:#ffffff;fill-opacity:1;fill-rule:nonzero;stroke:none"
           id="path5656"
           inkscape:connector-curvature="0" />
      </g>
      <g
         id="g5658"
         transform="translate(530.2974,643.3667)">
        <path
           d="m 0,0 c 0,-6.627 -5.373,-12 -12,-12 h -25.195 c -6.628,0 -12,5.373 -12,12 v 25.195 c 0,6.627 5.372,11.999 12,11.999 H -12 c 6.627,0 12,-5.372 12,-11.999 z"
           style="fill:#5a180a;fill-opacity:1;fill-rule:nonzero;stroke:none"
           id="path5660"
           inkscape:connector-curvature="0" />
      </g>
    </g>
  </g>
  <g
     inkscape:label="Button"
     inkscape:groupmode="layer"
     id="layer1"
     transform="translate(0,-270.01248)"
     style="display:inline">
    <g
       transform="matrix(0.46986243,0,0,-0.47049287,-468.25878,591.54502)"
       id="g13274">
      <g
         id="g13276">
        <g
           id="g13282">
          <g
             id="g13284">
            <path
               d="m 1011.398,680.561 c -6.628,0 -12,-5.115 -12,-11.424 v 0 -23.986 c 0,-6.309 5.372,-11.423 12,-11.423 v 0 h 25.195 c 6.627,0 12,5.114 12,11.423 v 0 23.986 c 0,6.309 -5.373,11.424 -12,11.424 v 0 z"
               style="fill:url(#radialGradient13292);stroke:none"
               id="path13294"
               inkscape:connector-curvature="0" />
          </g>
        </g>
      </g>
    </g>
  </g>
  <g
     inkscape:groupmode="layer"
     id="layer2"
     inkscape:label="Symbol"
     style="display:inline"
     transform="translate(0,-27.252084)">
    <g
       transform="matrix(0.46986302,0,0,-0.4704931,-468.25887,98.660872)"
       id="g13398">
      <g
         id="g13400"
         clip-path="url(#clipPath13404)">
        <g
           id="g13406"
           transform="translate(1011.627,143.3164)">
          <path
             d="m 0,0 c 0,-1.863 -1.512,-3.375 -3.375,-3.375 -1.863,0 -3.375,1.512 -3.375,3.375 0,1.865 1.512,3.375 3.375,3.375 C -1.512,3.375 0,1.865 0,0"
             style="fill:#ffffff;fill-opacity:1;fill-rule:nonzero;stroke:none"
             id="path13408"
             inkscape:connector-curvature="0" />
        </g>
        <g
           id="g13410"
           transform="translate(1005.6895,140.6094)">
          <path
             d="m 0,0 c 0,-1.289 -1.045,-2.334 -2.334,-2.334 -1.287,0 -2.332,1.045 -2.332,2.334 0,1.287 1.045,2.332 2.332,2.332 C -1.045,2.332 0,1.287 0,0"
             style="fill:#ffffff;fill-opacity:1;fill-rule:nonzero;stroke:none"
             id="path13412"
             inkscape:connector-curvature="0" />
        </g>
        <g
           id="g13414"
           transform="translate(1043.9824,106.7754)">
          <path
             d="m 0,0 c 0,-1.289 -1.045,-2.334 -2.334,-2.334 -1.289,0 -2.334,1.045 -2.334,2.334 0,1.287 1.045,2.332 2.334,2.332 C -1.045,2.332 0,1.287 0,0"
             style="fill:#ffffff;fill-opacity:1;fill-rule:nonzero;stroke:none"
             id="path13416"
             inkscape:connector-curvature="0" />
        </g>
        <g
           transform="translate(-1.2430667e-6,1.166246e-6)"
           style="display:inline"
           id="g1670">
          <g
             transform="translate(16.582377,-16.422964)"
             id="g1622">
            <g
               id="g13418"
               transform="translate(1023.126,135.708)">
              <path
                 d="M 0,0 C 0,-0.602 -0.202,-1.143 -0.537,-1.539 -0.866,-1.93 -1.322,-2.174 -1.826,-2.174 h -6.059 v -6.055 c 0,-1.007 -0.97,-1.828 -2.171,-1.828 -0.597,0 -1.143,0.209 -1.534,0.537 -0.39,0.331 -0.636,0.788 -0.636,1.291 V 0 c 0,0.598 0.206,1.141 0.538,1.535 0.018,0.02 0.038,0.043 0.055,0.061 0.396,0.353 0.956,0.574 1.577,0.574 h 8.23 C -0.819,2.17 0,1.197 0,0"
                 style="fill:#59180c;fill-opacity:1;fill-rule:nonzero;stroke:none"
                 id="path13420"
                 inkscape:connector-curvature="0" />
            </g>
            <g
               id="g1574">
              <g
                 transform="translate(1023.126,135.3955)"
                 id="g13450">
                <path
                   inkscape:connector-curvature="0"
                   id="path13452"
                   style="fill:#c6942c;fill-opacity:1;fill-rule:nonzero;stroke:none"
                   d="M 0,0 C 0,-0.604 -0.202,-1.145 -0.537,-1.541 -0.866,-1.932 -1.322,-2.176 -1.826,-2.176 H -7.885 V -8.23 c 0,-1.008 -0.97,-1.827 -2.171,-1.827 -0.597,0 -1.143,0.207 -1.534,0.537 -0.39,0.329 -0.636,0.786 -0.636,1.29 V 0 c 0,0.598 0.206,1.139 0.538,1.535 0.018,0.018 0.038,0.041 0.055,0.061 0.396,0.353 0.956,0.574 1.577,0.574 h 8.23 C -0.819,2.17 0,1.195 0,0" />
              </g>
              <g
                 id="g1532">
                <g
                   id="g13422"
                   transform="translate(1023.126,135.708)">
                  <path
                     d="M 0,0 C 0,-0.602 -0.202,-1.143 -0.537,-1.539 -0.866,-1.93 -1.322,-2.174 -1.826,-2.174 h -6.059 v -6.055 c 0,-1.007 -0.97,-1.828 -2.171,-1.828 -0.597,0 -1.143,0.209 -1.534,0.537 -0.39,0.331 -0.636,0.788 -0.636,1.291 V 0 c 0,0.598 0.206,1.141 0.538,1.535 0.018,0.02 0.038,0.043 0.055,0.061 0.396,0.353 0.956,0.574 1.577,0.574 h 8.23 C -0.819,2.17 0,1.197 0,0 Z"
                     style="fill:none;stroke:#5a180a;stroke-width:3;stroke-linecap:butt;stroke-linejoin:miter;stroke-miterlimit:10;stroke-dasharray:none;stroke-opacity:1"
                     id="path13424"
                     inkscape:connector-curvature="0" />
                </g>
                <g
                   id="g13466"
                   transform="translate(1023.126,136.0225)">
                  <path
                     d="M 0,0 C 0,-0.604 -0.202,-1.145 -0.537,-1.541 -0.866,-1.93 -1.322,-2.176 -1.826,-2.176 h -6.059 v -6.053 c 0,-1.007 -0.97,-1.828 -2.171,-1.828 -0.597,0 -1.143,0.207 -1.534,0.537 -0.39,0.331 -0.636,0.788 -0.636,1.291 V 0 c 0,0.598 0.206,1.139 0.538,1.535 0.018,0.018 0.038,0.041 0.055,0.061 0.396,0.353 0.956,0.574 1.577,0.574 h 8.23 C -0.819,2.17 0,1.195 0,0"
                     style="fill:#faed24;fill-opacity:1;fill-rule:nonzero;stroke:none"
                     id="path13468"
                     inkscape:connector-curvature="0" />
                </g>
              </g>
            </g>
          </g>
          <g
             transform="translate(-16.582622,-16.422964)"
             id="g1610">
            <g
               id="g13426"
               transform="translate(1026.3564,135.708)">
              <path
                 d="m 0,0 c 0,-0.602 0.203,-1.143 0.537,-1.539 0.33,-0.391 0.786,-0.635 1.29,-0.635 h 6.059 v -6.055 c 0,-1.007 0.969,-1.828 2.171,-1.828 0.596,0 1.143,0.209 1.534,0.537 0.39,0.331 0.636,0.788 0.636,1.291 V 0 c 0,0.598 -0.207,1.141 -0.538,1.535 C 11.67,1.555 11.651,1.578 11.633,1.596 11.237,1.949 10.677,2.17 10.057,2.17 H 1.827 C 0.819,2.17 0,1.197 0,0"
                 style="fill:#59180c;fill-opacity:1;fill-rule:nonzero;stroke:none"
                 id="path13428"
                 inkscape:connector-curvature="0" />
            </g>
            <g
               id="g1565">
              <g
                 transform="translate(1026.3564,135.3955)"
                 id="g13454">
                <path
                   inkscape:connector-curvature="0"
                   id="path13456"
                   style="fill:#c6942c;fill-opacity:1;fill-rule:nonzero;stroke:none"
                   d="m 0,0 c 0,-0.604 0.203,-1.145 0.537,-1.541 0.33,-0.391 0.786,-0.635 1.29,-0.635 H 7.886 V -8.23 c 0,-1.008 0.969,-1.827 2.171,-1.827 0.596,0 1.143,0.207 1.534,0.537 0.39,0.329 0.636,0.786 0.636,1.29 V 0 c 0,0.598 -0.207,1.139 -0.538,1.535 C 11.67,1.553 11.651,1.576 11.633,1.596 11.237,1.949 10.677,2.17 10.057,2.17 H 1.827 C 0.819,2.17 0,1.195 0,0" />
              </g>
              <g
                 id="g1526">
                <g
                   id="g13430"
                   transform="translate(1026.3564,135.708)">
                  <path
                     d="m 0,0 c 0,-0.602 0.203,-1.143 0.537,-1.539 0.33,-0.391 0.786,-0.635 1.29,-0.635 h 6.059 v -6.055 c 0,-1.007 0.969,-1.828 2.171,-1.828 0.596,0 1.143,0.209 1.534,0.537 0.39,0.331 0.636,0.788 0.636,1.291 V 0 c 0,0.598 -0.207,1.141 -0.538,1.535 C 11.67,1.555 11.651,1.578 11.633,1.596 11.237,1.949 10.677,2.17 10.057,2.17 H 1.827 C 0.819,2.17 0,1.197 0,0 Z"
                     style="fill:none;stroke:#5a180a;stroke-width:3;stroke-linecap:butt;stroke-linejoin:miter;stroke-miterlimit:10;stroke-dasharray:none;stroke-opacity:1"
                     id="path13432"
                     inkscape:connector-curvature="0" />
                </g>
                <g
                   id="g13470"
                   transform="translate(1026.3564,136.0225)">
                  <path
                     d="m 0,0 c 0,-0.604 0.203,-1.145 0.537,-1.541 0.33,-0.389 0.786,-0.635 1.29,-0.635 h 6.059 v -6.053 c 0,-1.007 0.969,-1.828 2.171,-1.828 0.596,0 1.143,0.207 1.534,0.537 0.39,0.331 0.636,0.788 0.636,1.291 V 0 c 0,0.598 -0.207,1.139 -0.538,1.535 C 11.67,1.553 11.651,1.576 11.633,1.596 11.237,1.949 10.677,2.17 10.057,2.17 H 1.827 C 0.819,2.17 0,1.195 0,0"
                     style="fill:#faed24;fill-opacity:1;fill-rule:nonzero;stroke:none"
                     id="path13472"
                     inkscape:connector-curvature="0" />
                </g>
              </g>
            </g>
          </g>
          <g
             transform="translate(16.582386,16.423206)"
             id="g1598">
            <g
               id="g13434"
               transform="translate(1023.21,112.5225)">
              <path
                 d="m 0,0 c 0,0.604 -0.203,1.145 -0.537,1.539 -0.33,0.391 -0.785,0.635 -1.29,0.635 H -7.886 V 8.23 c 0,1.006 -0.97,1.825 -2.171,1.825 -0.596,0 -1.143,-0.205 -1.534,-0.537 -0.39,-0.329 -0.636,-0.786 -0.636,-1.288 V 0 c 0,-0.598 0.207,-1.141 0.537,-1.535 0.018,-0.02 0.039,-0.043 0.057,-0.061 0.396,-0.353 0.956,-0.574 1.576,-0.574 h 8.23 C -0.82,-2.17 0,-1.195 0,0"
                 style="fill:#59180c;fill-opacity:1;fill-rule:nonzero;stroke:none"
                 id="path13436"
                 inkscape:connector-curvature="0" />
            </g>
            <g
               id="g1556"
               transform="translate(-0.08277679)">
              <g
                 transform="translate(1023.21,112.208)"
                 id="g13458">
                <path
                   inkscape:connector-curvature="0"
                   id="path13460"
                   style="fill:#c6942c;fill-opacity:1;fill-rule:nonzero;stroke:none"
                   d="m 0,0 c 0,0.604 -0.203,1.145 -0.537,1.541 -0.33,0.391 -0.785,0.635 -1.29,0.635 H -7.886 V 8.23 c 0,1.006 -0.97,1.827 -2.171,1.827 -0.596,0 -1.143,-0.207 -1.534,-0.537 -0.39,-0.331 -0.636,-0.786 -0.636,-1.29 V 0 c 0,-0.598 0.207,-1.139 0.537,-1.533 0.018,-0.02 0.039,-0.043 0.057,-0.063 0.396,-0.351 0.956,-0.574 1.576,-0.574 h 8.23 C -0.82,-2.17 0,-1.195 0,0" />
              </g>
              <g
                 transform="translate(-2.3168716e-4)"
                 id="g1538">
                <g
                   id="g13438"
                   transform="translate(1023.21,112.5225)">
                  <path
                     d="m 0,0 c 0,0.604 -0.203,1.145 -0.537,1.539 -0.33,0.391 -0.785,0.635 -1.29,0.635 H -7.886 V 8.23 c 0,1.006 -0.97,1.825 -2.171,1.825 -0.596,0 -1.143,-0.205 -1.534,-0.537 -0.39,-0.329 -0.636,-0.786 -0.636,-1.288 V 0 c 0,-0.598 0.207,-1.141 0.537,-1.535 0.018,-0.02 0.039,-0.043 0.057,-0.061 0.396,-0.353 0.956,-0.574 1.576,-0.574 h 8.23 C -0.82,-2.17 0,-1.195 0,0 Z"
                     style="fill:none;stroke:#5a180a;stroke-width:3;stroke-linecap:butt;stroke-linejoin:miter;stroke-miterlimit:10;stroke-dasharray:none;stroke-opacity:1"
                     id="path13440"
                     inkscape:connector-curvature="0" />
                </g>
                <g
                   id="g13474"
                   transform="translate(1023.21,112.835)">
                  <path
                     d="m 0,0 c 0,0.604 -0.203,1.146 -0.537,1.541 -0.33,0.391 -0.785,0.635 -1.29,0.635 H -7.886 V 8.23 c 0,1.008 -0.97,1.827 -2.171,1.827 -0.596,0 -1.143,-0.205 -1.534,-0.537 -0.39,-0.329 -0.636,-0.786 -0.636,-1.29 V 0 c 0,-0.596 0.207,-1.139 0.537,-1.533 0.018,-0.02 0.039,-0.043 0.057,-0.061 0.396,-0.353 0.956,-0.576 1.576,-0.576 h 8.23 C -0.82,-2.17 0,-1.195 0,0"
                     style="fill:#faed24;fill-opacity:1;fill-rule:nonzero;stroke:none"
                     id="path13476"
                     inkscape:connector-curvature="0" />
                </g>
              </g>
            </g>
          </g>
          <g
             transform="translate(-16.582622,16.423206)"
             id="g1586">
            <g
               id="g13442"
               transform="translate(1026.3564,112.5225)"
               style="display:inline">
              <path
                 d="m 0,0 c 0,0.604 0.203,1.145 0.537,1.539 0.33,0.391 0.786,0.635 1.29,0.635 H 7.886 V 8.23 c 0,1.006 0.969,1.825 2.171,1.825 0.596,0 1.143,-0.205 1.534,-0.537 0.39,-0.329 0.636,-0.786 0.636,-1.288 V 0 c 0,-0.598 -0.207,-1.141 -0.538,-1.535 C 11.67,-1.555 11.651,-1.578 11.633,-1.596 11.237,-1.949 10.677,-2.17 10.057,-2.17 H 1.827 C 0.819,-2.17 0,-1.195 0,0"
                 style="fill:#59180c;fill-opacity:1;fill-rule:nonzero;stroke:none"
                 id="path13444"
                 inkscape:connector-curvature="0" />
            </g>
            <g
               id="g1547"
               style="display:inline">
              <g
                 transform="translate(1026.3564,112.208)"
                 id="g13462">
                <path
                   inkscape:connector-curvature="0"
                   id="path13464"
                   style="fill:#c6942c;fill-opacity:1;fill-rule:nonzero;stroke:none"
                   d="m 0,0 c 0,0.604 0.203,1.145 0.537,1.541 0.33,0.391 0.786,0.635 1.29,0.635 H 7.886 V 8.23 c 0,1.006 0.969,1.827 2.171,1.827 0.596,0 1.143,-0.207 1.534,-0.537 0.39,-0.331 0.636,-0.786 0.636,-1.29 V 0 c 0,-0.598 -0.207,-1.139 -0.538,-1.533 C 11.67,-1.553 11.651,-1.576 11.633,-1.596 11.237,-1.947 10.677,-2.17 10.057,-2.17 H 1.827 C 0.819,-2.17 0,-1.195 0,0" />
              </g>
              <g
                 id="g1520">
                <g
                   id="g13446"
                   transform="translate(1026.3564,112.5225)">
                  <path
                     d="m 0,0 c 0,0.604 0.203,1.145 0.537,1.539 0.33,0.391 0.786,0.635 1.29,0.635 H 7.886 V 8.23 c 0,1.006 0.969,1.825 2.171,1.825 0.596,0 1.143,-0.205 1.534,-0.537 0.39,-0.329 0.636,-0.786 0.636,-1.288 V 0 c 0,-0.598 -0.207,-1.141 -0.538,-1.535 C 11.67,-1.555 11.651,-1.578 11.633,-1.596 11.237,-1.949 10.677,-2.17 10.057,-2.17 H 1.827 C 0.819,-2.17 0,-1.195 0,0 Z"
                     style="fill:none;stroke:#5a180a;stroke-width:3;stroke-linecap:butt;stroke-linejoin:miter;stroke-miterlimit:10;stroke-dasharray:none;stroke-opacity:1"
                     id="path13448"
                     inkscape:connector-curvature="0" />
                </g>
                <g
                   id="g13478"
                   transform="translate(1026.3564,112.835)">
                  <path
                     d="m 0,0 c 0,0.604 0.203,1.146 0.537,1.541 0.33,0.391 0.786,0.635 1.29,0.635 H 7.886 V 8.23 c 0,1.008 0.969,1.827 2.171,1.827 0.596,0 1.143,-0.205 1.534,-0.537 0.39,-0.329 0.636,-0.786 0.636,-1.29 V 0 c 0,-0.596 -0.207,-1.139 -0.538,-1.533 C 11.67,-1.553 11.651,-1.576 11.633,-1.594 11.237,-1.947 10.677,-2.17 10.057,-2.17 H 1.827 C 0.819,-2.17 0,-1.195 0,0"
                     style="fill:#faed24;fill-opacity:1;fill-rule:nonzero;stroke:none"
                     id="path13480"
                     inkscape:connector-curvature="0" />
                </g>
              </g>
            </g>
          </g>
          <g
             transform="translate(1013.7877,129.34884)"
             id="g13482">
            <path
               inkscape:connector-curvature="0"
               id="path13484"
               style="fill:#ffffff;fill-opacity:1;fill-rule:nonzero;stroke:none"
               d="m 0,0 c 0,-0.961 -0.779,-1.74 -1.741,-1.74 -0.963,0 -1.742,0.779 -1.742,1.74 0,0.963 0.779,1.742 1.742,1.742 C -0.779,1.742 0,0.963 0,0" />
          </g>
        </g>
      </g>
    </g>
  </g>
</svg>
