<?xml version="1.0" encoding="UTF-8" standalone="no"?>
<!-- Created with Inkscape (http://www.inkscape.org/) -->

<svg
   xmlns:dc="http://purl.org/dc/elements/1.1/"
   xmlns:cc="http://creativecommons.org/ns#"
   xmlns:rdf="http://www.w3.org/1999/02/22-rdf-syntax-ns#"
   xmlns:svg="http://www.w3.org/2000/svg"
   xmlns="http://www.w3.org/2000/svg"
   xmlns:sodipodi="http://sodipodi.sourceforge.net/DTD/sodipodi-0.dtd"
   xmlns:inkscape="http://www.inkscape.org/namespaces/inkscape"
   width="200"
   height="205"
   viewBox="0 0 52.916665 54.239585"
   version="1.1"
   id="svg20568"
   inkscape:version="0.92.4 (5da689c313, 2019-01-14)"
   sodipodi:docname="start-hover.svg"
   inkscape:export-filename="../../bitmaps/buttons/start-hover.png"
   inkscape:export-xdpi="96"
   inkscape:export-ydpi="96">
  <defs
     id="defs20562">
    <clipPath
       clipPathUnits="userSpaceOnUse"
       id="clipPath5690">
      <path
         d="M 0,720 H 1280 V 0 H 0 Z"
         id="path5688"
         inkscape:connector-curvature="0" />
    </clipPath>
    <clipPath
       clipPathUnits="userSpaceOnUse"
       id="clipPath5730">
      <path
         d="m 478.291,617.065 h 56.311 v -57.36 h -56.311 z"
         id="path5728"
         inkscape:connector-curvature="0" />
    </clipPath>
    <radialGradient
       fx="0"
       fy="0"
       cx="0"
       cy="0"
       r="1"
       gradientUnits="userSpaceOnUse"
       gradientTransform="matrix(24.59741,0,0,-23.416735,505.69971,657.14404)"
       spreadMethod="pad"
       id="radialGradient5680">
      <stop
         style="stop-opacity:1;stop-color:#e65124"
         offset="0"
         id="stop5674" />
      <stop
         style="stop-opacity:1;stop-color:#e65124"
         offset="0.263441"
         id="stop5676" />
      <stop
         style="stop-opacity:1;stop-color:#a91e22"
         offset="1"
         id="stop5678" />
    </radialGradient>
    <clipPath
       clipPathUnits="userSpaceOnUse"
       id="clipPath5588">
      <path
         d="M 0,720 H 1280 V 0 H 0 Z"
         id="path5586"
         inkscape:connector-curvature="0" />
    </clipPath>
    <clipPath
       clipPathUnits="userSpaceOnUse"
       id="clipPath5644">
      <path
         d="m 478.291,683.395 h 56.311 v -57.36 h -56.311 z"
         id="path5642"
         inkscape:connector-curvature="0" />
    </clipPath>
    <radialGradient
       fx="0"
       fy="0"
       cx="0"
       cy="0"
       r="1"
       gradientUnits="userSpaceOnUse"
       gradientTransform="matrix(24.597656,0,0,-23.416969,569.65186,657.14404)"
       spreadMethod="pad"
       id="radialGradient11324">
      <stop
         style="stop-opacity:1;stop-color:#e65124"
         offset="0"
         id="stop11318" />
      <stop
         style="stop-opacity:1;stop-color:#e65124"
         offset="0.263441"
         id="stop11320" />
      <stop
         style="stop-opacity:1;stop-color:#e76924"
         offset="1"
         id="stop11322" />
    </radialGradient>
  </defs>
  <sodipodi:namedview
     id="base"
     pagecolor="#ffffff"
     bordercolor="#666666"
     borderopacity="1.0"
     inkscape:pageopacity="0.0"
     inkscape:pageshadow="2"
     inkscape:zoom="2"
     inkscape:cx="-24.475028"
     inkscape:cy="95.785974"
     inkscape:document-units="px"
     inkscape:current-layer="g5582"
     showgrid="false"
     units="px"
     inkscape:pagecheckerboard="true" />
  <metadata
     id="metadata20565">
    <rdf:RDF>
      <cc:Work
         rdf:about="">
        <dc:format>image/svg+xml</dc:format>
        <dc:type
           rdf:resource="http://purl.org/dc/dcmitype/StillImage" />
        <dc:title></dc:title>
      </cc:Work>
    </rdf:RDF>
  </metadata>
  <g
     inkscape:groupmode="layer"
     id="layer3"
     inkscape:label="Base"
     style="display:inline">
    <g
       transform="matrix(0.93972666,0,0,-0.9456011,-449.46271,646.21899)"
       id="g5582">
      <g
         id="g5638">
        <g
           id="g5640" />
        <g
           id="g5652">
          <g
             clip-path="url(#clipPath5644)"
             id="g5650"
             style="opacity:0.10000598">
            <g
               transform="translate(534.6016,640.0249)"
               id="g5648">
              <path
                 d="m 0,0 c 0,-7.729 -6.149,-13.99 -13.736,-13.99 h -28.839 c -7.586,0 -13.736,6.261 -13.736,13.99 v 29.379 c 0,7.728 6.15,13.991 13.736,13.991 h 28.839 C -6.149,43.37 0,37.107 0,29.379 Z"
                 style="fill:#231f20;fill-opacity:1;fill-rule:nonzero;stroke:none"
                 id="path5646"
                 inkscape:connector-curvature="0" />
            </g>
          </g>
        </g>
      </g>
      <g
         id="g5654"
         transform="translate(533.1309,641.6636)">
        <path
           d="m 0,0 c 0,-7.437 -5.989,-13.463 -13.377,-13.463 h -28.086 c -7.388,0 -13.377,6.026 -13.377,13.463 v 28.268 c 0,7.437 5.989,13.463 13.377,13.463 h 28.086 C -5.989,41.731 0,35.705 0,28.268 Z"
           style="fill:#ffffff;fill-opacity:1;fill-rule:nonzero;stroke:none"
           id="path5656"
           inkscape:connector-curvature="0" />
      </g>
      <g
         id="g5658"
         transform="translate(530.2974,643.3667)"
         inkscape:export-filename="../../bitmaps/buttons\g5658.png"
         inkscape:export-xdpi="96"
         inkscape:export-ydpi="96">
        <path
           d="m 0,0 c 0,-6.627 -5.373,-12 -12,-12 h -25.195 c -6.628,0 -12,5.373 -12,12 v 25.195 c 0,6.627 5.372,11.999 12,11.999 H -12 c 6.627,0 12,-5.372 12,-11.999 z"
           style="fill:#5a180a;fill-opacity:1;fill-rule:nonzero;stroke:none"
           id="path5660"
           inkscape:connector-curvature="0" />
      </g>
    </g>
  </g>
  <g
     inkscape:label="Button"
     inkscape:groupmode="layer"
     id="layer1"
     transform="translate(0,-242.7604)">
    <g
       transform="matrix(0.93972664,0,0,-0.94560308,-509.56016,888.98068)"
       id="g11306">
      <g
         id="g11308">
        <g
           id="g11314">
          <g
             id="g11316">
            <path
               d="m 557.054,680.561 c -6.628,0 -12,-5.115 -12,-11.424 v 0 -23.986 c 0,-6.309 5.372,-11.423 12,-11.423 v 0 h 25.196 c 6.626,0 11.999,5.114 11.999,11.423 v 0 23.986 c 0,6.309 -5.373,11.424 -11.999,11.424 v 0 z"
               style="fill:url(#radialGradient11324);stroke:none"
               id="path11326"
               inkscape:connector-curvature="0" />
          </g>
        </g>
      </g>
    </g>
  </g>
  <g
     inkscape:groupmode="layer"
     id="layer2"
     inkscape:label="Symbol">
    <g
       transform="matrix(0.93972666,0,0,-0.9456011,-449.46271,646.21899)"
       clip-path="url(#clipPath5690)"
       id="g5686">
      <g
         transform="translate(493.3325,674.937)"
         id="g5692">
        <path
           inkscape:connector-curvature="0"
           id="path5694"
           style="fill:#ffffff;fill-opacity:1;fill-rule:nonzero;stroke:none"
           d="m 0,0 c 0,-1.863 -1.511,-3.375 -3.375,-3.375 -1.864,0 -3.375,1.512 -3.375,3.375 0,1.863 1.511,3.375 3.375,3.375 C -1.511,3.375 0,1.863 0,0" />
      </g>
      <g
         transform="translate(487.3955,672.228)"
         id="g5696">
        <path
           inkscape:connector-curvature="0"
           id="path5698"
           style="fill:#ffffff;fill-opacity:1;fill-rule:nonzero;stroke:none"
           d="m 0,0 c 0,-1.287 -1.045,-2.332 -2.333,-2.332 -1.289,0 -2.334,1.045 -2.334,2.332 0,1.289 1.045,2.334 2.334,2.334 C -1.045,2.334 0,1.289 0,0" />
      </g>
      <g
         transform="translate(525.6875,638.396)"
         id="g5700">
        <path
           inkscape:connector-curvature="0"
           id="path5702"
           style="fill:#ffffff;fill-opacity:1;fill-rule:nonzero;stroke:none"
           d="m 0,0 c 0,-1.289 -1.045,-2.334 -2.333,-2.334 -1.289,0 -2.334,1.045 -2.334,2.334 0,1.287 1.045,2.332 2.334,2.332 C -1.045,2.332 0,1.287 0,0" />
      </g>
      <g
         transform="translate(498.8364,670.9106)"
         id="g5704">
        <path
           inkscape:connector-curvature="0"
           id="path5706"
           style="fill:#59180c;fill-opacity:1;fill-rule:evenodd;stroke:none"
           d="m 0,0 c 0.346,0 0.708,-0.086 1.095,-0.261 l 0.102,-0.044 0.117,-0.086 14.466,-10.793 0.076,-0.066 0.067,-0.054 c 0.759,-0.762 1.398,-1.612 1.542,-2.722 0.178,-1.296 -0.252,-2.527 -1.726,-3.649 v -0.011 L 2.032,-27.922 1.592,-28.238 c -1.01,-0.752 -1.878,-0.828 -2.619,-0.295 -0.691,0.512 -1.096,1.46 -1.247,2.799 l -0.009,0.088 V -2.82 l 0.017,0.141 c 0.177,1.199 0.615,1.972 1.272,2.396 C -0.682,-0.086 -0.354,0 0,0" />
      </g>
      <g
         transform="translate(498.8364,670.9106)"
         id="g5708">
        <path
           inkscape:connector-curvature="0"
           id="path5710"
           style="fill:none;stroke:#5a180a;stroke-width:3;stroke-linecap:butt;stroke-linejoin:miter;stroke-miterlimit:10;stroke-dasharray:none;stroke-opacity:1"
           d="m 0,0 c 0.346,0 0.708,-0.086 1.095,-0.261 l 0.102,-0.044 0.117,-0.086 14.466,-10.793 0.076,-0.066 0.067,-0.054 c 0.759,-0.762 1.398,-1.612 1.542,-2.722 0.178,-1.296 -0.252,-2.527 -1.726,-3.649 v -0.011 L 2.032,-27.922 1.592,-28.238 c -1.01,-0.752 -1.878,-0.828 -2.619,-0.295 -0.691,0.512 -1.096,1.46 -1.247,2.799 l -0.009,0.088 V -2.82 l 0.017,0.141 c 0.177,1.199 0.615,1.972 1.272,2.396 C -0.682,-0.086 -0.354,0 0,0 Z" />
      </g>
      <g
         transform="translate(498.8364,670.1069)"
         id="g5712">
        <path
           inkscape:connector-curvature="0"
           id="path5714"
           style="fill:#c6942c;fill-opacity:1;fill-rule:evenodd;stroke:none"
           d="m 0,0 c 0.346,0 0.708,-0.087 1.095,-0.261 l 0.102,-0.044 0.117,-0.087 14.466,-10.793 0.076,-0.065 0.067,-0.054 c 0.759,-0.763 1.398,-1.612 1.542,-2.722 0.178,-1.297 -0.252,-2.528 -1.726,-3.649 v -0.012 L 1.592,-28.251 v 0.012 c -1.01,-0.751 -1.878,-0.828 -2.619,-0.294 -0.691,0.511 -1.096,1.46 -1.247,2.798 l -0.009,0.088 v 22.826 l 0.017,0.142 c 0.177,1.198 0.615,1.971 1.272,2.396 C -0.682,-0.087 -0.354,0 0,0" />
      </g>
      <g
         transform="translate(498.8364,671.7153)"
         id="g5716">
        <path
           inkscape:connector-curvature="0"
           id="path5718"
           style="fill:#faed24;fill-opacity:1;fill-rule:evenodd;stroke:none"
           d="m 0,0 c 0.346,0 0.708,-0.086 1.095,-0.261 l 0.102,-0.044 0.117,-0.086 14.466,-10.793 0.076,-0.066 0.067,-0.054 c 0.759,-0.762 1.398,-1.612 1.542,-2.722 0.178,-1.296 -0.252,-2.527 -1.726,-3.649 v -0.011 L 1.592,-28.25 v 0.012 c -1.01,-0.752 -1.878,-0.828 -2.619,-0.295 -0.691,0.512 -1.096,1.46 -1.247,2.799 l -0.009,0.088 V -2.82 l 0.017,0.141 c 0.177,1.199 0.615,1.972 1.272,2.396 C -0.682,-0.086 -0.354,0 0,0" />
      </g>
      <g
         transform="translate(500.9053,669.4028)"
         id="g5720">
        <path
           inkscape:connector-curvature="0"
           id="path5722"
           style="fill:#ffffff;fill-opacity:1;fill-rule:evenodd;stroke:none"
           d="m 0,0 c 0,-1.082 -0.877,-1.959 -1.959,-1.959 -1.082,0 -1.959,0.877 -1.959,1.959 0,1.082 0.877,1.959 1.959,1.959 C -0.877,1.959 0,1.082 0,0" />
      </g>
    </g>
  </g>
</svg>
